<?xml version="1.0" encoding="UTF-8" standalone="no"?>
<!-- Uploaded to: SVG Repo, www.svgrepo.com, Generator: SVG Repo Mixer Tools -->

<svg
   fill="#000000"
   width="800px"
   height="800px"
   viewBox="0 0 24 24"
   version="1.1"
   id="svg4"
   sodipodi:docname="icon.svg"
   inkscape:version="1.1.2 (0a00cf5339, 2022-02-04)"
   xmlns:inkscape="http://www.inkscape.org/namespaces/inkscape"
   xmlns:sodipodi="http://sodipodi.sourceforge.net/DTD/sodipodi-0.dtd"
   xmlns="http://www.w3.org/2000/svg"
   xmlns:svg="http://www.w3.org/2000/svg">
  <defs
     id="defs8" />
  <sodipodi:namedview
     id="namedview6"
     pagecolor="#ffffff"
     bordercolor="#666666"
     borderopacity="1.0"
     inkscape:pageshadow="2"
     inkscape:pageopacity="0.0"
     inkscape:pagecheckerboard="0"
     showgrid="false"
     inkscape:zoom="0.545625"
     inkscape:cx="-241.00802"
     inkscape:cy="101.71821"
     inkscape:window-width="3840"
     inkscape:window-height="2092"
     inkscape:window-x="0"
     inkscape:window-y="0"
     inkscape:window-maximized="1"
     inkscape:current-layer="svg4" />
  <path
     d="M 7.343016,8.195668 6.8110563,9.7693236 c -0.1533104,0.4469264 -0.017276,0.9211524 0.3682026,1.2835854 0.047414,0.03917 0.097724,0.07636 0.1506966,0.111423 v 4.549748 c 0,0.205123 0.2248978,0.371408 0.5023228,0.371408 h 8.0379887 c 0.669763,0 0.669763,-0.742816 0,-0.742816 H 8.3325917 v -3.75122 c 0.7267069,0.123181 1.4855175,-0.06484 1.9650863,-0.486917 0.01508,0.013 0.02561,0.02823 0.04119,0.04085 0.383637,0.307553 0.923523,0.482708 1.489386,0.483202 h 0.0417 c 0.565637,-4.2e-4 1.10535,-0.175435 1.488884,-0.482831 0.01557,-0.01263 0.02612,-0.02823 0.04118,-0.04122 0.479501,0.422151 1.238373,0.610187 1.965087,0.486916 v 3.994801 c 0,0.49521 1.004644,0.49521 1.004644,0 v -4.421177 c 0.05298,-0.03505 0.10328,-0.07226 0.1507,-0.111422 0.385479,-0.362434 0.521513,-0.83666 0.368203,-1.2835865 L 16.354685,8.195668 C 16.298696,8.0304171 16.097836,7.9145167 15.867433,7.9145122 H 7.8302689 C 7.5998639,7.9145167 7.3990044,8.0304171 7.343016,8.195668 Z m 8.132102,0.4616602 0.437021,1.2921283 c 0.161212,0.4756195 -0.325413,0.9365215 -0.988572,0.9363185 -0.528876,-0.002 -0.9688,-0.301311 -1.015696,-0.690818 L 13.73457,8.6573282 Z m -4.505834,0 h 1.758128 l 0.159237,1.4113498 c 0.04968,0.439839 -0.419758,0.817107 -1.016701,0.817097 h -0.0417 C 11.2328,10.885933 10.764104,10.510081 10.81255,10.071278 Z m -1.0046455,0 -0.00607,0.049768 -0.1466786,1.2999278 v 0 l -0.020593,0.185704 C 9.7458325,10.583399 9.3049163,10.883954 8.7745952,10.885775 8.1114322,10.88591 7.6247154,10.425154 7.7855219,9.949456 L 8.2225426,8.6573277 Z"
     id="path2"
     sodipodi:nodetypes="ccccsssscccccccccssccccccccccccccccscccccccccccc"
     style="stroke-width:0.431932" />
</svg>
